<svg width="141" height="21" viewBox="0 0 141 21" fill="none" xmlns="http://www.w3.org/2000/svg">
<path d="M6.1 17.5C6.1 17.3 6.11667 17.15 6.15 17.05C6.2 16.9333 6.30833 16.875 6.475 16.875C6.625 16.875 6.79167 16.9083 6.975 16.975C7.175 17.0417 7.36667 17.1167 7.55 17.2C8.01667 17.4 8.43333 17.55 8.8 17.65C9.18333 17.75 9.65833 17.8 10.225 17.8C12.2917 17.8 13.8417 17.3083 14.875 16.325C15.925 15.3417 16.45 14.0583 16.45 12.475C16.45 11.0583 16.05 9.81667 15.25 8.75C14.45 7.66667 13.4333 6.81667 12.2 6.2C10.9833 5.58333 9.74167 5.21667 8.475 5.1L9.9 15.675C9.9 15.9583 9.85833 16.1917 9.775 16.375C9.70833 16.5583 9.54167 16.65 9.275 16.65C9.20833 16.6833 9.08333 16.2333 8.9 15.3C8.71667 14.3667 8.46667 12.9917 8.15 11.175C7.78333 9.05833 7.5 7.49167 7.3 6.475C7.1 5.44167 6.94167 4.85 6.825 4.7C5.44167 4.7 4.30833 4.775 3.425 4.925C2.54167 5.05833 1.86667 5.21667 1.4 5.4C0.933333 5.58333 0.741667 5.675 0.825 5.675C0.741667 5.64167 0.683333 5.59167 0.65 5.525C0.616667 5.44167 0.591667 5.325 0.575 5.175C0.541667 5.025 0.516667 4.91667 0.5 4.85C0.5 4.45 0.858333 4.13333 1.575 3.9C2.29167 3.66667 3.04167 3.50833 3.825 3.425C4.625 3.34167 5.15833 3.3 5.425 3.3C7.20833 3.3 9.06667 3.66667 11 4.4C12.9333 5.11667 14.5583 6.175 15.875 7.575C17.1917 8.975 17.85 10.6333 17.85 12.55C17.85 13.9833 17.4917 15.2083 16.775 16.225C16.0583 17.225 15.1167 17.9833 13.95 18.5C12.8 19.0167 11.5667 19.275 10.25 19.275C9.18333 19.275 8.225 19.1083 7.375 18.775C6.525 18.4417 6.1 18.0167 6.1 17.5ZM31.4701 19.85C31.3535 19.9833 31.1868 20.05 30.9701 20.05C30.1868 20.05 28.9368 19.3333 27.2201 17.9C25.5201 16.45 24.0118 15.0083 22.6951 13.575C22.7785 14.025 22.9368 14.7833 23.1701 15.85C23.2701 16.2667 23.3535 16.6667 23.4201 17.05C23.5035 17.4333 23.5451 17.7333 23.5451 17.95C23.5451 18.4333 23.3701 18.725 23.0201 18.825C22.9368 19.0417 22.7118 18.5 22.3451 17.2C21.9951 15.9 21.6618 14.4 21.3451 12.7C21.0451 10.9833 20.8951 9.55 20.8951 8.4C20.8951 7.81667 20.9451 7.34167 21.0451 6.975C21.2618 6.80833 21.4451 6.725 21.5951 6.725C21.8951 6.725 22.1035 6.98333 22.2201 7.5C22.3368 8 22.4451 8.79167 22.5451 9.875L22.5951 10.45C23.2451 10.4167 24.1285 10.275 25.2451 10.025C26.3785 9.775 27.3868 9.43333 28.2701 9C29.1701 8.55 29.6201 8.01667 29.6201 7.4C29.6201 7.06667 29.3785 6.7 28.8951 6.3C28.4285 5.88333 27.7035 5.53333 26.7201 5.25C25.7535 4.96667 24.5618 4.825 23.1451 4.825H22.3451C21.3951 4.825 20.6535 4.98333 20.1201 5.3C19.5868 5.6 19.3201 6.25 19.3201 7.25C19.0701 7.25 18.8451 7.09167 18.6451 6.775C18.4451 6.45833 18.3451 6.16667 18.3451 5.9C18.3451 4.86667 18.8368 4.19167 19.8201 3.875C20.8201 3.55833 22.2535 3.4 24.1201 3.4C25.1035 3.4 26.1285 3.55833 27.1951 3.875C28.2618 4.19167 29.1618 4.69167 29.8951 5.375C30.6285 6.04167 30.9951 6.875 30.9951 7.875C30.9951 8.55833 30.6868 9.125 30.0701 9.575C29.4701 10.025 28.7618 10.375 27.9451 10.625C27.1285 10.875 26.1285 11.1333 24.9451 11.4C23.9618 11.6167 23.3201 11.775 23.0201 11.875C24.3035 13.6083 25.5368 14.9583 26.7201 15.925C27.9201 16.8917 29.1701 17.7667 30.4701 18.55C30.9201 18.8167 31.2368 19.0167 31.4201 19.15C31.6035 19.2833 31.6951 19.4083 31.6951 19.525C31.6951 19.6417 31.6201 19.75 31.4701 19.85ZM38.1385 19.025C36.7551 19.025 35.7468 18.7667 35.1135 18.25C34.4968 17.7333 34.1885 16.8 34.1885 15.45L34.5385 9.85V4.475C34.5385 4.05833 34.6218 3.79167 34.7885 3.675C34.9551 3.54167 35.3218 3.475 35.8885 3.475L37.5885 3.525C39.7218 3.64167 41.8051 3.7 43.8385 3.7C44.2718 3.7 44.6135 3.825 44.8635 4.075C45.1301 4.325 45.2635 4.66667 45.2635 5.1C45.2635 5.18333 45.2385 5.25 45.1885 5.3C45.1385 5.35 45.0801 5.36667 45.0135 5.35L43.8385 4.9L36.0135 5.1C35.9135 5.1 35.8551 5.09167 35.8385 5.075C35.9051 5.20833 35.9385 5.325 35.9385 5.425V9.85C36.7051 9.9 37.4468 9.925 38.1635 9.925C39.3968 9.925 40.7551 9.86667 42.2385 9.75C42.3885 9.73333 42.6135 9.71667 42.9135 9.7C43.2301 9.66667 43.4051 9.66667 43.4385 9.7C43.5385 9.8 43.6135 9.89167 43.6635 9.975C43.7135 10.0583 43.7468 10.175 43.7635 10.325C43.8135 10.6917 43.2551 10.9333 42.0885 11.05C40.9385 11.1667 39.3968 11.2583 37.4635 11.325C36.8135 11.325 36.2718 11.3417 35.8385 11.375C35.6385 11.875 35.5385 12.675 35.5385 13.775L35.5635 15.25V16.875C35.8301 17.0917 36.1218 17.2333 36.4385 17.3C36.7551 17.3667 37.2718 17.4 37.9885 17.4C38.7385 17.4 39.4718 17.3583 40.1885 17.275C40.9218 17.1917 41.3551 17.1417 41.4885 17.125C42.8885 16.9583 43.9301 16.875 44.6135 16.875C45.0135 16.875 45.2885 16.9167 45.4385 17C45.6051 17.0667 45.6885 17.1917 45.6885 17.375C45.6885 18.475 43.4551 19.025 38.9885 19.025H38.1385ZM59.5996 19.025C59.3996 19.025 59.2579 18.975 59.1746 18.875C59.1079 18.775 59.0746 18.6333 59.0746 18.45C59.0746 18.0833 59.1579 17.5167 59.3246 16.75C59.5079 16.05 59.5996 15.475 59.5996 15.025C59.5996 13.725 59.4996 12.7333 59.2996 12.05H58.5246C57.8413 12.05 56.9496 12.0333 55.8496 12L53.4996 11.975H50.1246L50.1746 12.95C50.1746 13.7167 50.2996 14.675 50.5496 15.825C50.6329 16.2917 50.7079 16.7667 50.7746 17.25C50.8579 17.7167 50.8996 18.1417 50.8996 18.525V18.75C50.7329 18.9167 50.5579 19 50.3746 19C49.9413 19 49.5996 18.4917 49.3496 17.475C49.0996 16.4417 48.9746 15.2 48.9746 13.75C48.9746 13.1667 48.9996 12.5917 49.0496 12.025C48.6829 12.0083 48.4329 11.95 48.2996 11.85C48.1663 11.7333 48.0996 11.5583 48.0996 11.325C48.0996 11.1417 48.1496 11.0167 48.2496 10.95C48.3663 10.8833 48.5663 10.8333 48.8496 10.8L48.8246 10.125L48.8996 8.975C49.0163 7.09167 49.1913 5.55833 49.4246 4.375C49.6579 3.19167 50.1579 2.16667 50.9246 1.3C51.6913 0.433332 52.8413 -1.2517e-06 54.3746 -1.2517e-06C56.1246 -1.2517e-06 57.4913 0.941666 58.4746 2.825C59.4579 4.70833 60.1246 6.80833 60.4746 9.125C60.8246 11.4417 60.9996 13.4333 60.9996 15.1C60.9996 15.7 60.9829 16.225 60.9496 16.675C60.9163 17.1083 60.8496 17.65 60.7496 18.3C60.3663 18.7833 59.9829 19.025 59.5996 19.025ZM59.1996 11.075C58.8829 7.99167 58.3163 5.575 57.4996 3.825C56.6829 2.05833 55.4579 1.175 53.8246 1.175C52.6079 1.175 51.7079 1.74167 51.1246 2.875C50.5579 3.99167 50.2163 5.19167 50.0996 6.475C49.9829 7.75833 49.9246 9.2 49.9246 10.8L59.1996 11.075ZM74.9799 8.7C74.9799 9.41667 75.0132 10.1167 75.0799 10.8C75.1632 11.4667 75.2882 12.4083 75.4549 13.625C75.7716 15.675 75.9299 17.3083 75.9299 18.525C75.9299 18.775 75.8799 18.925 75.7799 18.975C75.6799 19.025 75.5632 19.05 75.4299 19.05C75.2966 19.05 75.2049 19.05 75.1549 19.05C74.9216 19.05 74.7382 19.025 74.6049 18.975C74.4716 18.9083 74.3632 18.7583 74.2799 18.525L73.7549 11.725C73.7049 11.0417 73.6382 9.66667 73.5549 7.6C72.8382 8.43333 72.1299 9.06667 71.4299 9.5C70.7299 9.91667 70.0132 10.125 69.2799 10.125C68.2299 10.125 67.1799 9.38333 66.1299 7.9C66.1799 8.15 66.2049 8.48333 66.2049 8.9C66.2049 9.31667 66.2049 9.55833 66.2049 9.625L66.1799 17.8C66.1799 17.9667 66.0882 18.1 65.9049 18.2C65.7382 18.2833 65.5632 18.325 65.3799 18.325C65.1465 18.325 64.9799 18.2417 64.8799 18.075C64.7965 17.8917 64.7299 17.65 64.6799 17.35V13.85C64.6799 13.3167 64.6965 12.7167 64.7299 12.05C64.7632 11.3833 64.7882 10.9167 64.8049 10.65C64.8882 9.48333 64.9299 8.425 64.9299 7.475C64.9299 7.19167 64.8799 6.925 64.7799 6.675C64.6799 6.40833 64.5299 6.11667 64.3299 5.8C64.1299 5.48333 63.9799 5.20833 63.8799 4.975C63.7965 4.74167 63.7549 4.49167 63.7549 4.225C63.7549 3.90833 63.9132 3.75 64.2299 3.75C64.7299 3.75 65.1382 3.93333 65.4549 4.3C65.7715 4.65 66.1132 5.18333 66.4799 5.9C66.7965 6.48333 67.0715 6.94167 67.3049 7.275C67.5382 7.60833 67.8382 7.9 68.2049 8.15C68.5715 8.38333 69.0132 8.5 69.5299 8.5C70.2799 8.53333 70.8965 8.39167 71.3799 8.075C71.8632 7.74167 72.2299 7.34167 72.4799 6.875C72.7299 6.40833 72.9716 5.84167 73.2049 5.175C73.4049 4.625 73.5799 4.24167 73.7299 4.025C73.8799 3.79167 74.0632 3.7 74.2799 3.75C74.7799 3.71667 75.0299 4.175 75.0299 5.125C75.0299 5.925 75.0216 6.51667 75.0049 6.9L74.9799 8.7ZM82.5404 17.5C82.5404 17.3 82.5571 17.15 82.5904 17.05C82.6404 16.9333 82.7488 16.875 82.9154 16.875C83.0654 16.875 83.2321 16.9083 83.4154 16.975C83.6154 17.0417 83.8071 17.1167 83.9904 17.2C84.4571 17.4 84.8738 17.55 85.2404 17.65C85.6238 17.75 86.0988 17.8 86.6654 17.8C88.7321 17.8 90.2821 17.3083 91.3154 16.325C92.3654 15.3417 92.8904 14.0583 92.8904 12.475C92.8904 11.0583 92.4904 9.81667 91.6904 8.75C90.8904 7.66667 89.8738 6.81667 88.6404 6.2C87.4238 5.58333 86.1821 5.21667 84.9154 5.1L86.3404 15.675C86.3404 15.9583 86.2988 16.1917 86.2154 16.375C86.1488 16.5583 85.9821 16.65 85.7154 16.65C85.6488 16.6833 85.5238 16.2333 85.3404 15.3C85.1571 14.3667 84.9071 12.9917 84.5904 11.175C84.2238 9.05833 83.9404 7.49167 83.7404 6.475C83.5404 5.44167 83.3821 4.85 83.2654 4.7C81.8821 4.7 80.7488 4.775 79.8654 4.925C78.9821 5.05833 78.3071 5.21667 77.8404 5.4C77.3738 5.58333 77.1821 5.675 77.2654 5.675C77.1821 5.64167 77.1238 5.59167 77.0904 5.525C77.0571 5.44167 77.0321 5.325 77.0154 5.175C76.9821 5.025 76.9571 4.91667 76.9404 4.85C76.9404 4.45 77.2988 4.13333 78.0154 3.9C78.7321 3.66667 79.4821 3.50833 80.2654 3.425C81.0654 3.34167 81.5988 3.3 81.8654 3.3C83.6488 3.3 85.5071 3.66667 87.4404 4.4C89.3738 5.11667 90.9988 6.175 92.3154 7.575C93.6321 8.975 94.2904 10.6333 94.2904 12.55C94.2904 13.9833 93.9321 15.2083 93.2154 16.225C92.4988 17.225 91.5571 17.9833 90.3904 18.5C89.2404 19.0167 88.0071 19.275 86.6904 19.275C85.6238 19.275 84.6654 19.1083 83.8154 18.775C82.9654 18.4417 82.5404 18.0167 82.5404 17.5ZM102.25 19.025C100.866 19.025 99.8581 18.7667 99.2248 18.25C98.6081 17.7333 98.2998 16.8 98.2998 15.45L98.6498 9.85V4.475C98.6498 4.05833 98.7331 3.79167 98.8998 3.675C99.0665 3.54167 99.4331 3.475 99.9998 3.475L101.7 3.525C103.833 3.64167 105.916 3.7 107.95 3.7C108.383 3.7 108.725 3.825 108.975 4.075C109.241 4.325 109.375 4.66667 109.375 5.1C109.375 5.18333 109.35 5.25 109.3 5.3C109.25 5.35 109.191 5.36667 109.125 5.35L107.95 4.9L100.125 5.1C100.025 5.1 99.9665 5.09167 99.9498 5.075C100.016 5.20833 100.05 5.325 100.05 5.425V9.85C100.816 9.9 101.558 9.925 102.275 9.925C103.508 9.925 104.866 9.86667 106.35 9.75C106.5 9.73333 106.725 9.71667 107.025 9.7C107.341 9.66667 107.516 9.66667 107.55 9.7C107.65 9.8 107.725 9.89167 107.775 9.975C107.825 10.0583 107.858 10.175 107.875 10.325C107.925 10.6917 107.366 10.9333 106.2 11.05C105.05 11.1667 103.508 11.2583 101.575 11.325C100.925 11.325 100.383 11.3417 99.9498 11.375C99.7498 11.875 99.6498 12.675 99.6498 13.775L99.6748 15.25V16.875C99.9415 17.0917 100.233 17.2333 100.55 17.3C100.866 17.3667 101.383 17.4 102.1 17.4C102.85 17.4 103.583 17.3583 104.3 17.275C105.033 17.1917 105.466 17.1417 105.6 17.125C107 16.9583 108.041 16.875 108.725 16.875C109.125 16.875 109.4 16.9167 109.55 17C109.716 17.0667 109.8 17.1917 109.8 17.375C109.8 18.475 107.566 19.025 103.1 19.025H102.25ZM120.111 18.05C121.478 18.05 122.536 17.8583 123.286 17.475C124.036 17.0917 124.411 16.5333 124.411 15.8C124.411 15.15 124.186 14.5917 123.736 14.125C123.286 13.6417 122.728 13.2333 122.061 12.9C121.394 12.5667 120.486 12.175 119.336 11.725C119.236 11.6917 118.994 11.6 118.611 11.45C117.044 10.8167 115.836 10.1833 114.986 9.55C114.153 8.91667 113.736 8.1 113.736 7.1C113.736 5.98333 114.178 5.14167 115.061 4.575C115.944 4.00833 117.078 3.725 118.461 3.725C119.478 3.725 120.411 3.85833 121.261 4.125C122.128 4.375 122.811 4.725 123.311 5.175C123.828 5.625 124.086 6.13333 124.086 6.7C123.886 6.8 123.694 6.85 123.511 6.85C123.311 6.85 123.103 6.80833 122.886 6.725C122.686 6.625 122.386 6.46667 121.986 6.25C121.336 5.9 120.728 5.625 120.161 5.425C119.594 5.20833 118.928 5.1 118.161 5.1C117.194 5.1 116.411 5.26667 115.811 5.6C115.211 5.93333 114.911 6.4 114.911 7C114.911 7.46667 115.111 7.89167 115.511 8.275C115.928 8.65833 116.444 9 117.061 9.3C117.694 9.58333 118.536 9.925 119.586 10.325C120.919 10.8417 122.019 11.325 122.886 11.775C123.753 12.225 124.486 12.8 125.086 13.5C125.703 14.1833 126.011 15 126.011 15.95C126.011 17.0667 125.478 17.9333 124.411 18.55C123.344 19.15 122.019 19.45 120.436 19.45C119.186 19.45 117.953 19.2667 116.736 18.9C115.519 18.5333 114.478 17.9917 113.611 17.275C112.744 16.5417 112.194 15.6667 111.961 14.65C111.961 14.2 112.086 13.8167 112.336 13.5C112.586 13.1667 112.894 13 113.261 13C113.261 14.0833 113.561 15.0083 114.161 15.775C114.778 16.525 115.603 17.0917 116.636 17.475C117.686 17.8583 118.844 18.05 120.111 18.05ZM135.726 19.025C135.259 19.025 134.934 18.7833 134.751 18.3C134.568 17.8167 134.418 17.1667 134.301 16.35L134.226 15.725C133.976 14.3917 133.776 13.0667 133.626 11.75C133.476 10.4167 133.326 8.80833 133.176 6.925L133.026 5.075C132.026 5.09167 130.601 5.05 128.751 4.95L128.251 4.925C128.018 4.90833 127.851 4.8 127.751 4.6C127.668 4.38333 127.626 4.09167 127.626 3.725H129.351C132.251 3.725 134.868 3.83333 137.201 4.05C139.534 4.26667 140.701 4.70833 140.701 5.375C140.701 5.55833 140.668 5.68333 140.601 5.75C140.551 5.81667 140.434 5.85 140.251 5.85C139.584 5.8 138.551 5.65833 137.151 5.425C136.834 5.375 136.451 5.31667 136.001 5.25C135.551 5.18333 135.043 5.11667 134.476 5.05C134.476 7.46667 134.834 11.1833 135.551 16.2C135.584 16.45 135.701 16.8083 135.901 17.275C135.984 17.475 136.059 17.6917 136.126 17.925C136.209 18.1417 136.251 18.3417 136.251 18.525C136.251 18.7583 136.218 18.9 136.151 18.95C136.084 19 136.001 19.025 135.901 19.025C135.818 19.025 135.759 19.025 135.726 19.025Z" fill="black"/>
</svg>
