<svg width="253" height="32" viewBox="0 0 253 32" fill="none" xmlns="http://www.w3.org/2000/svg">
<path d="M10.288 0.419998C13.544 0.419998 16.3893 1.05066 18.824 2.312C21.288 3.544 23.18 5.33333 24.5 7.68C25.8493 9.99733 26.524 12.7107 26.524 15.82C26.524 18.9293 25.8493 21.628 24.5 23.916C23.18 26.204 21.288 27.964 18.824 29.196C16.3893 30.3987 13.544 31 10.288 31H0.3V0.419998H10.288ZM10.288 26.908C13.8667 26.908 16.6093 25.94 18.516 24.004C20.4227 22.068 21.376 19.34 21.376 15.82C21.376 12.2707 20.4227 9.49867 18.516 7.504C16.6093 5.50933 13.8667 4.512 10.288 4.512H5.316V26.908H10.288ZM47.3793 31L40.3393 18.768H36.5113V31H31.4953V0.419998H42.0553C44.402 0.419998 46.382 0.830664 47.9953 1.652C49.638 2.47333 50.8553 3.57333 51.6473 4.952C52.4686 6.33067 52.8793 7.87067 52.8793 9.572C52.8793 11.5667 52.2926 13.3853 51.1193 15.028C49.9753 16.6413 48.2006 17.7413 45.7953 18.328L53.3633 31H47.3793ZM36.5113 14.764H42.0553C43.9326 14.764 45.3406 14.2947 46.2793 13.356C47.2473 12.4173 47.7313 11.156 47.7313 9.572C47.7313 7.988 47.262 6.756 46.3233 5.876C45.3846 4.96666 43.962 4.512 42.0553 4.512H36.5113V14.764ZM64.3121 4.468V13.444H74.8721V17.536H64.3121V26.908H76.1921V31H59.2961V0.375998H76.1921V4.468H64.3121ZM100.806 24.752H88.0023L85.8023 31H80.5663L91.5223 0.375998H97.3303L108.286 31H103.006L100.806 24.752ZM99.3983 20.66L94.4263 6.448L89.4103 20.66H99.3983ZM145.258 0.419998V31H140.242V10.056L130.914 31H127.438L118.066 10.056V31H113.05V0.419998H118.462L129.198 24.4L139.89 0.419998H145.258ZM161.839 0.419998C165.095 0.419998 167.94 1.05066 170.375 2.312C172.839 3.544 174.731 5.33333 176.051 7.68C177.4 9.99733 178.075 12.7107 178.075 15.82C178.075 18.9293 177.4 21.628 176.051 23.916C174.731 26.204 172.839 27.964 170.375 29.196C167.94 30.3987 165.095 31 161.839 31H151.851V0.419998H161.839ZM161.839 26.908C165.417 26.908 168.16 25.94 170.067 24.004C171.973 22.068 172.927 19.34 172.927 15.82C172.927 12.2707 171.973 9.49867 170.067 7.504C168.16 5.50933 165.417 4.512 161.839 4.512H156.867V26.908H161.839ZM188.062 4.468V13.444H198.622V17.536H188.062V26.908H199.942V31H183.046V0.375998H199.942V4.468H188.062ZM216.196 31.308C214.143 31.308 212.295 30.956 210.652 30.252C209.01 29.5187 207.719 28.492 206.78 27.172C205.842 25.852 205.372 24.312 205.372 22.552H210.74C210.858 23.872 211.371 24.9573 212.28 25.808C213.219 26.6587 214.524 27.084 216.196 27.084C217.927 27.084 219.276 26.6733 220.244 25.852C221.212 25.0013 221.696 23.916 221.696 22.596C221.696 21.5693 221.388 20.7333 220.772 20.088C220.186 19.4427 219.438 18.944 218.528 18.592C217.648 18.24 216.416 17.8587 214.832 17.448C212.838 16.92 211.21 16.392 209.948 15.864C208.716 15.3067 207.66 14.456 206.78 13.312C205.9 12.168 205.46 10.6427 205.46 8.736C205.46 6.976 205.9 5.436 206.78 4.116C207.66 2.796 208.892 1.784 210.476 1.08C212.06 0.375998 213.894 0.0239975 215.976 0.0239975C218.939 0.0239975 221.359 0.771998 223.236 2.268C225.143 3.73466 226.199 5.75866 226.404 8.34H220.86C220.772 7.22533 220.244 6.272 219.276 5.48C218.308 4.688 217.032 4.292 215.448 4.292C214.011 4.292 212.838 4.65866 211.928 5.392C211.019 6.12533 210.564 7.18133 210.564 8.56C210.564 9.49867 210.843 10.276 211.4 10.892C211.987 11.4787 212.72 11.948 213.6 12.3C214.48 12.652 215.683 13.0333 217.208 13.444C219.232 14.0013 220.875 14.5587 222.136 15.116C223.427 15.6733 224.512 16.5387 225.392 17.712C226.302 18.856 226.756 20.396 226.756 22.332C226.756 23.8867 226.331 25.3533 225.48 26.732C224.659 28.1107 223.442 29.2253 221.828 30.076C220.244 30.8973 218.367 31.308 216.196 31.308ZM252.431 0.419998V4.512H244.291V31H239.275V4.512H231.091V0.419998H252.431Z" fill="black"/>
</svg>
