<svg width="36" height="23" viewBox="0 0 36 23" fill="none" xmlns="http://www.w3.org/2000/svg">
<path d="M32.7399 9.83855C32.7279 8.74776 32.7238 7.64888 32.7198 6.55405H29.4718C29.4597 7.64484 29.4517 8.73968 29.4437 9.83855C28.3503 9.84259 27.2649 9.85067 26.1796 9.86279V13.1311C27.2649 13.1433 28.3583 13.1513 29.4437 13.1635C29.4557 14.2543 29.4557 15.3491 29.4638 16.4399H32.7158C32.7198 15.3491 32.7279 14.2543 32.7359 13.1554C33.8293 13.1433 34.9146 13.1392 36 13.1271V9.85875C34.9187 9.85067 33.8253 9.85067 32.7399 9.83855ZM11.4348 9.85471C11.4308 11.1596 11.4348 12.4686 11.4388 13.7735C13.6176 13.8462 15.8003 13.8139 17.9791 13.8462C17.0184 18.7063 10.4459 20.2819 6.96878 17.1065C3.39113 14.3229 3.55996 8.21852 7.27831 5.63293C9.87914 3.5483 13.5734 4.06138 16.1742 5.86725C17.1952 4.91785 18.152 3.89978 19.0725 2.84938C16.9098 1.11623 14.2567 -0.120006 11.4348 0.00927389C5.54174 -0.188685 0.127028 4.99865 0.0305517 10.9253C-0.347312 15.7692 2.82031 20.5162 7.29037 22.2292C11.7443 23.9543 17.4565 22.7786 20.3026 18.7548C22.1798 16.2136 22.5858 12.9413 22.3647 9.86683C18.7187 9.83855 15.0768 9.84259 11.4348 9.85471Z" fill="black"/>
</svg>
