<svg width="24" height="28" viewBox="0 0 24 28" fill="none" xmlns="http://www.w3.org/2000/svg">
<path d="M12 0.111084C8.17086 0.111084 5.05558 3.22636 5.05558 7.05553V9.83331H3.66669C2.13475 9.83331 0.888916 11.0791 0.888916 12.6111V25.1111C0.888916 26.643 2.13475 27.8889 3.66669 27.8889H20.3334C21.8653 27.8889 23.1111 26.643 23.1111 25.1111V12.6111C23.1111 11.0791 21.8653 9.83331 20.3334 9.83331H18.9445V7.05553C18.9445 3.22636 15.8292 0.111084 12 0.111084ZM7.83336 7.05553C7.83336 4.75831 9.7028 2.88886 12 2.88886C14.2972 2.88886 16.1667 4.75831 16.1667 7.05553V9.83331H7.83336V7.05553ZM20.3361 25.1111H13.3889V21.9472C14.2153 21.4653 14.7778 20.5791 14.7778 19.5555C14.7778 18.0236 13.532 16.7778 12 16.7778C10.4681 16.7778 9.22225 18.0236 9.22225 19.5555C9.22225 20.5777 9.78475 21.4653 10.6111 21.9472V25.1111H3.66669V12.6111H20.3334L20.3361 25.1111Z" fill="black"/>
</svg>
