<svg width="17" height="23" viewBox="0 0 17 23" fill="none" xmlns="http://www.w3.org/2000/svg">
<path d="M17 8.05C17 6.99286 16.7801 5.94607 16.353 4.9694C15.9258 3.99273 15.2997 3.1053 14.5104 2.35779C13.7211 1.61028 12.7841 1.01732 11.7528 0.61277C10.7215 0.208219 9.61624 0 8.5 0C7.38376 0 6.27846 0.208219 5.24719 0.61277C4.21592 1.01732 3.27889 1.61028 2.48959 2.35779C1.70029 3.1053 1.07419 3.99273 0.647024 4.9694C0.219859 5.94607 -1.66332e-08 6.99286 0 8.05C0 9.64505 0.497857 11.1286 1.34179 12.3798H1.33207C4.19779 16.629 8.5 23 8.5 23L15.6679 12.3798H15.6594C16.5342 11.0876 16.9995 9.58495 17 8.05ZM8.5 11.5C7.53385 11.5 6.60728 11.1365 5.92411 10.4895C5.24094 9.84252 4.85714 8.965 4.85714 8.05C4.85714 7.135 5.24094 6.25748 5.92411 5.61048C6.60728 4.96348 7.53385 4.6 8.5 4.6C9.46615 4.6 10.3927 4.96348 11.0759 5.61048C11.7591 6.25748 12.1429 7.135 12.1429 8.05C12.1429 8.965 11.7591 9.84252 11.0759 10.4895C10.3927 11.1365 9.46615 11.5 8.5 11.5Z" fill="#FBFCFE"/>
</svg>
