<svg width="36" height="29" viewBox="0 0 36 29" fill="none" xmlns="http://www.w3.org/2000/svg">
<path d="M35.3097 3.48882C34.0326 4.06812 32.6719 4.45209 31.2531 4.63853C32.7126 3.73741 33.8266 2.32136 34.3503 0.614559C32.9895 1.45353 31.4871 2.04614 29.8859 2.37685C28.5938 0.954144 26.7523 0.072998 24.7433 0.072998C20.8455 0.072998 17.7076 3.34456 17.7076 7.35521C17.7076 7.93229 17.7548 8.48716 17.8707 9.01541C12.0176 8.72021 6.8385 5.81931 3.35929 1.40027C2.75187 2.49005 2.39558 3.73741 2.39558 5.08021C2.39558 7.60158 3.65119 9.83662 5.5228 11.1306C4.39168 11.1084 3.28202 10.7688 2.34192 10.2339C2.34192 10.2561 2.34192 10.285 2.34192 10.3138C2.34192 13.8517 4.78231 16.7904 7.9825 17.4673C7.40943 17.6293 6.78485 17.707 6.13665 17.707C5.68592 17.707 5.23089 17.6804 4.80377 17.5827C5.71597 20.4659 8.30446 22.5855 11.3823 22.6543C8.98699 24.5919 5.94563 25.7594 2.65314 25.7594C2.07577 25.7594 1.52202 25.7328 0.968262 25.6595C4.0869 27.7392 7.78289 28.9266 11.7687 28.9266C24.724 28.9266 31.8069 17.8291 31.8069 8.20972C31.8069 7.88789 31.7962 7.57716 31.7811 7.26865C33.1784 6.24324 34.3525 4.96258 35.3097 3.48882Z" fill="white"/>
</svg>
