<svg width="34" height="33" viewBox="0 0 34 33" fill="none" xmlns="http://www.w3.org/2000/svg">
<g clip-path="url(#clip0_24_48)">
<path d="M29.0718 0.184082H5.44127C2.74204 0.184082 0.545441 2.30102 0.545441 4.90238V27.676C0.545441 30.278 2.74204 32.3943 5.44127 32.3943H29.0718C31.7717 32.3943 33.9677 30.278 33.9677 27.676V4.90238C33.9677 2.30102 31.7717 0.184082 29.0718 0.184082ZM32.0093 27.676C32.0093 29.2368 30.6914 30.507 29.0718 30.507H5.44127C3.82173 30.507 2.50377 29.2368 2.50377 27.676V4.90238C2.50377 3.34157 3.82173 2.0714 5.44127 2.0714H29.0718C30.6914 2.0714 32.0093 3.34157 32.0093 4.90238V27.676Z" fill="white"/>
<path d="M28.0274 4.02173C26.9477 4.02173 26.069 4.86851 26.069 5.90905C26.069 6.94959 26.9477 7.79637 28.0274 7.79637C29.1071 7.79637 29.9857 6.94959 29.9857 5.90905C29.9857 4.86851 29.1071 4.02173 28.0274 4.02173Z" fill="white"/>
<path d="M17.2566 7.79639C12.3973 7.79639 8.44406 11.6063 8.44406 16.2893C8.44406 20.9724 12.3973 24.7823 17.2566 24.7823C22.1158 24.7823 26.0691 20.9724 26.0691 16.2893C26.0691 11.6063 22.1158 7.79639 17.2566 7.79639ZM17.2566 22.8949C13.477 22.8949 10.4024 19.9318 10.4024 16.2893C10.4024 12.6468 13.477 9.68371 17.2566 9.68371C21.0361 9.68371 24.1107 12.6468 24.1107 16.2893C24.1107 19.9318 21.0361 22.8949 17.2566 22.8949Z" fill="white"/>
</g>
<defs>
<clipPath id="clip0_24_48">
<rect width="33.4222" height="32.2102" fill="white" transform="translate(0.545441 0.184082)"/>
</clipPath>
</defs>
</svg>
